PathFileType	4	(X/Y/Z)
DataRate	CameraRate	NumFrames	NumMarkers	Units	OrigDataRate	OrigDataStartFrame	OrigNumFrames	
	120.0	120.0	11	39	mm	120.0	51	201
Frame#	Time	midhip	hip_r	hip_l	knee_r	knee_l	ankle_r	ankle_l	midasis	asis_r	asis_l	psis_r	psis_l	epicondLat_r	epicondLat_l	epicondMed_r	epicondMed_l	malleolusLat_r	malleolusLat_l	malleolusMedv_r	malleolusMedv_l	heel_r	heel_l	sternalnotch	xyphoidprocess	neck	subclavicle_r	subclavicle_l	toe_r	toe_l	thighwand_r	thighwand_l	upperleg1_r	upperleg1_l	upperleg2_r	upperleg2_l	shankwand_r	shankwand_l	lowerleg1_r	lowerleg1_l
	X1	Y1	Z1	X2	Y2	Z2	X3	Y3	Z3	X4	Y4	Z4	X5	Y5	Z5	X6	Y6	Z6	X7	Y7	Z7	X8	Y8	Z8	X9	Y9	Z9	X10	Y10	Z10	X11	Y11	Z11	X12	Y12	Z12	X13	Y13	Z13	X14	Y14	Z14	X15	Y15	Z15	X16	Y16	Z16	X17	Y17	Z17	X18	Y18	Z18	X19	Y19	Z19	X20	Y20	Z20	X21	Y21	Z21	X22	Y22	Z22	X23	Y23	Z23	X24	Y24	Z24	X25	Y25	Z25	X26	Y26	Z26	X27	Y27	Z27	X28	Y28	Z28	X29	Y29	Z29	X30	Y30	Z30	X31	Y31	Z31	X32	Y32	Z32	X33	Y33	Z33	X34	Y34	Z34	X35	Y35	Z35	X36	Y36	Z36	X37	Y37	Z37	X38	Y38	Z38	X39	Y39	Z39

	51	0.42500	743.893	785.172	-243.857	723.080	790.556	-164.581	722.751	790.930	-320.210	720.644	419.603	-153.525	731.268	428.658	-333.237	716.204	59.004	-116.831	726.064	56.791	-368.161	857.806	852.887	-242.531	858.065	852.593	-120.151	857.547	853.181	-364.912	618.829	943.963	-206.872	615.646	942.001	-262.459	727.223	421.741	-80.352	725.288	431.150	-406.451	709.678	424.393	-225.537	728.059	408.891	-260.216	705.857	63.094	-77.889	702.444	60.309	-402.102	722.326	66.443	-152.711	722.217	72.517	-325.586	653.401	50.028	-124.640	672.342	47.273	-334.425	779.757	1288.957	-263.589	838.248	1220.433	-263.556	660.448	1351.507	-247.542	797.892	1296.619	-211.023	794.965	1295.529	-293.164	824.658	43.822	-104.585	822.073	48.356	-383.232	887.872	573.808	-88.628	908.615	605.906	-346.980	849.703	595.905	-110.088	860.677	621.268	-351.211	821.153	523.522	-113.995	842.918	549.927	-352.141	799.316	208.753	-103.630	686.176	175.468	-460.129	753.741	214.368	-117.110	692.073	184.645	-412.170
	52	0.43333	743.986	785.195	-243.911	723.183	790.568	-164.632	722.840	790.961	-320.260	720.735	419.639	-153.591	731.216	428.666	-333.282	716.254	59.010	-116.905	726.024	56.804	-368.184	857.907	852.896	-242.587	858.177	852.588	-120.181	857.637	853.205	-364.993	618.995	943.959	-206.922	615.849	942.007	-262.546	727.253	421.774	-80.412	725.284	431.160	-406.500	709.408	424.596	-225.550	728.088	408.857	-260.343	705.875	63.100	-77.972	702.428	60.320	-402.141	722.240	66.484	-152.803	722.078	72.524	-325.592	653.405	49.992	-124.647	672.348	47.272	-334.438	779.831	1288.972	-263.607	838.312	1220.439	-263.524	660.533	1351.502	-247.467	797.819	1296.544	-211.035	795.123	1295.591	-293.073	824.630	43.831	-104.604	822.049	48.331	-383.294	887.907	573.817	-88.715	908.645	605.878	-346.986	849.775	595.863	-110.134	860.677	621.268	-351.211	821.095	523.510	-114.041	842.942	549.992	-352.182	799.309	208.745	-103.677	686.171	175.486	-460.207	753.665	214.351	-117.103	691.997	184.686	-412.176
	53	0.44167	744.078	785.215	-243.930	723.300	790.568	-164.645	722.919	790.981	-320.273	720.794	419.641	-153.629	731.198	428.663	-333.324	716.288	59.021	-116.973	725.995	56.814	-368.225	858.007	852.901	-242.625	858.308	852.577	-120.200	857.707	853.226	-365.051	619.222	943.904	-207.013	616.026	942.019	-262.643	727.271	421.771	-80.446	725.287	431.165	-406.544	709.063	424.854	-225.513	728.368	408.778	-260.176	705.887	63.108	-78.046	702.409	60.332	-402.190	722.252	66.605	-152.888	722.013	72.492	-325.622	653.420	49.961	-124.658	672.350	47.271	-334.454	779.904	1288.912	-263.583	838.369	1220.367	-263.311	660.532	1351.506	-247.413	797.757	1296.510	-210.975	795.274	1295.513	-293.006	824.597	43.830	-104.625	822.037	48.318	-383.349	887.962	573.817	-88.821	908.669	605.848	-346.988	849.811	595.842	-110.156	860.677	621.268	-351.211	821.041	523.537	-114.085	843.036	550.013	-352.133	799.307	208.740	-103.694	686.193	175.501	-460.274	753.967	214.414	-117.015	691.997	184.686	-412.176
	54	0.45000	744.171	785.216	-243.903	723.441	790.552	-164.609	722.984	790.971	-320.236	720.823	419.626	-153.640	731.217	428.646	-333.350	716.299	59.028	-117.030	725.982	56.821	-368.282	858.112	852.884	-242.651	858.472	852.554	-120.215	857.753	853.213	-365.087	619.476	943.808	-207.138	616.160	942.034	-262.734	727.284	421.745	-80.455	725.294	431.162	-406.568	708.964	424.852	-225.328	728.660	408.699	-259.977	705.889	63.110	-78.104	702.391	60.344	-402.243	722.142	66.793	-152.983	721.965	72.448	-325.660	653.438	49.942	-124.670	672.349	47.268	-334.470	780.020	1288.863	-263.604	838.485	1220.318	-263.254	660.570	1351.499	-247.431	797.848	1296.499	-210.930	795.403	1295.442	-293.087	824.564	43.817	-104.642	822.040	48.316	-383.391	888.028	573.806	-88.918	908.681	605.800	-346.989	849.811	595.842	-110.156	860.677	621.268	-351.211	821.117	523.577	-114.072	843.131	550.019	-352.073	799.313	208.739	-103.688	686.216	175.510	-460.329	754.144	214.537	-116.880	692.008	184.675	-412.170
	55	0.45833	744.270	785.194	-243.835	723.611	790.516	-164.526	723.041	790.920	-320.154	720.847	419.608	-153.643	731.252	428.612	-333.369	716.293	59.027	-117.068	725.975	56.826	-368.339	858.226	852.839	-242.673	858.675	852.522	-120.239	857.778	853.157	-365.107	619.721	943.678	-207.274	616.244	942.048	-262.820	727.304	421.708	-80.458	725.307	431.148	-406.585	708.989	424.751	-225.144	728.402	408.801	-259.930	705.881	63.107	-78.142	702.373	60.354	-402.292	722.258	66.814	-153.010	721.938	72.407	-325.699	653.451	49.936	-124.677	672.346	47.264	-334.487	780.176	1288.810	-263.612	838.649	1220.271	-263.290	660.561	1351.497	-247.433	798.021	1296.440	-210.868	795.548	1295.394	-293.173	824.549	43.801	-104.649	822.055	48.310	-383.370	888.085	573.777	-88.991	908.670	605.736	-346.988	849.816	595.932	-110.179	860.677	621.268	-351.211	821.189	523.578	-114.061	843.015	549.904	-352.060	799.324	208.743	-103.666	686.232	175.513	-460.353	754.324	214.587	-116.893	692.019	184.663	-412.164
	56	0.46667	744.372	785.151	-243.749	723.798	790.462	-164.423	723.090	790.838	-320.050	720.872	419.589	-153.653	731.305	428.572	-333.377	716.270	59.021	-117.096	725.978	56.830	-368.388	858.343	852.773	-242.700	858.900	852.477	-120.275	857.786	853.070	-365.124	619.926	943.532	-207.410	616.287	942.055	-262.915	727.332	421.664	-80.467	725.330	431.130	-406.589	709.019	424.775	-225.174	728.378	408.863	-259.626	705.860	63.100	-78.170	702.363	60.365	-402.330	722.533	66.672	-152.980	721.903	72.384	-325.726	653.461	49.937	-124.677	672.340	47.257	-334.500	780.268	1288.728	-263.563	838.763	1220.209	-263.248	660.448	1351.455	-247.416	798.138	1296.380	-210.785	795.621	1295.307	-293.177	824.556	43.784	-104.645	822.074	48.296	-383.289	888.138	573.738	-89.030	908.641	605.667	-346.984	849.886	596.037	-110.262	860.677	621.268	-351.211	821.191	523.573	-114.116	842.968	549.759	-351.967	799.337	208.745	-103.639	686.249	175.519	-460.351	754.495	214.506	-117.003	692.019	184.663	-412.164
	57	0.47500	744.469	785.098	-243.673	723.977	790.401	-164.329	723.131	790.750	-319.956	720.889	419.567	-153.664	731.397	428.546	-333.365	716.232	59.016	-117.113	726.009	56.832	-368.422	858.452	852.700	-242.737	859.118	852.425	-120.318	857.786	852.975	-365.155	620.072	943.410	-207.524	616.314	942.050	-263.018	727.358	421.618	-80.478	725.363	431.118	-406.571	709.287	424.687	-225.406	728.911	408.729	-259.239	705.828	63.097	-78.186	702.367	60.374	-402.344	722.702	66.512	-152.942	721.876	72.379	-325.730	653.477	49.942	-124.674	672.338	47.249	-334.507	780.313	1288.671	-263.442	838.824	1220.164	-263.272	660.383	1351.409	-247.416	798.290	1296.309	-210.695	795.604	1295.264	-293.089	824.575	43.769	-104.632	822.087	48.286	-383.226	888.191	573.706	-89.032	908.606	605.600	-346.983	850.045	595.973	-110.403	860.677	621.268	-351.211	821.268	523.549	-114.206	843.145	549.769	-351.847	799.345	208.748	-103.617	686.270	175.527	-460.347	754.488	214.374	-117.100	692.019	184.663	-412.164
	58	0.48333	744.551	785.048	-243.622	724.130	790.348	-164.264	723.162	790.678	-319.890	720.894	419.551	-153.669	731.519	428.542	-333.334	716.186	59.019	-117.096	726.062	56.827	-368.430	858.546	852.633	-242.784	859.307	852.373	-120.364	857.784	852.892	-365.204	620.144	943.341	-207.596	616.345	942.041	-263.125	727.378	421.586	-80.484	725.404	431.119	-406.534	709.520	424.608	-225.595	729.326	408.552	-259.160	705.791	63.104	-78.166	702.382	60.375	-402.325	722.679	66.508	-152.922	721.845	72.403	-325.703	653.498	49.949	-124.668	672.344	47.242	-334.510	780.458	1288.659	-263.432	838.975	1220.157	-263.526	660.418	1351.388	-247.428	798.510	1296.161	-210.766	795.707	1295.330	-293.011	824.585	43.757	-104.617	822.095	48.289	-383.213	888.230	573.687	-89.003	908.567	605.540	-346.993	850.138	595.896	-110.485	860.677	621.268	-351.211	821.338	523.551	-114.261	843.295	549.818	-351.826	799.351	208.751	-103.609	686.288	175.535	-460.347	754.488	214.374	-117.100	692.008	184.675	-412.170
	59	0.49167	744.615	785.010	-243.615	724.242	790.301	-164.245	723.188	790.636	-319.870	720.895	419.543	-153.665	731.642	428.561	-333.299	716.145	59.028	-117.039	726.118	56.818	-368.414	858.618	852.579	-242.837	859.447	852.316	-120.400	857.789	852.843	-365.275	620.158	943.317	-207.647	616.380	942.033	-263.245	727.394	421.572	-80.481	725.449	431.131	-406.492	709.681	424.741	-226.000	729.296	408.682	-259.032	705.758	63.120	-78.108	702.402	60.370	-402.284	722.507	66.646	-152.910	721.813	72.439	-325.654	653.526	49.959	-124.658	672.354	47.238	-334.508	780.700	1288.687	-263.596	839.248	1220.212	-263.742	660.526	1351.359	-247.468	798.647	1296.070	-210.882	796.003	1295.437	-293.124	824.578	43.745	-104.607	822.097	48.304	-383.247	888.242	573.670	-88.964	908.540	605.493	-347.015	850.138	595.896	-110.485	860.852	621.310	-351.193	821.344	523.540	-114.393	843.352	549.728	-351.787	799.366	208.747	-103.624	686.310	175.542	-460.344	754.567	214.496	-117.011	691.997	184.686	-412.176
	60	0.50000	744.663	784.986	-243.658	724.308	790.265	-164.283	723.218	790.628	-319.908	720.913	419.522	-153.654	731.737	428.599	-333.280	716.122	59.035	-116.963	726.160	56.811	-368.379	858.668	852.553	-242.895	859.526	852.266	-120.423	857.811	852.839	-365.367	620.135	943.327	-207.700	616.408	942.024	-263.371	727.417	421.561	-80.470	725.496	431.155	-406.470	709.973	424.910	-226.666	729.091	408.948	-258.797	705.738	63.135	-78.033	702.422	60.363	-402.233	722.460	66.593	-152.838	721.810	72.460	-325.601	653.558	49.972	-124.644	672.361	47.236	-334.504	780.795	1288.692	-263.754	839.348	1220.222	-263.844	660.637	1351.339	-247.514	798.680	1296.066	-210.905	796.129	1295.448	-293.374	824.561	43.735	-104.606	822.086	48.321	-383.321	888.233	573.647	-88.934	908.543	605.465	-347.036	850.174	595.874	-110.508	861.042	621.407	-351.207	821.362	523.478	-114.615	843.337	549.535	-351.726	799.388	208.739	-103.646	686.334	175.551	-460.330	754.466	214.468	-117.058	692.008	184.675	-412.170
	61	0.50833	744.708	784.976	-243.739	724.343	790.247	-164.363	723.261	790.645	-319.988	720.947	419.489	-153.636	731.787	428.644	-333.292	716.118	59.037	-116.893	726.185	56.812	-368.323	858.704	852.558	-242.954	859.556	852.245	-120.435	857.852	852.871	-365.474	620.061	943.380	-207.739	616.416	942.007	-263.481	727.445	421.547	-80.453	725.541	431.187	-406.482	710.185	424.907	-226.904	729.061	408.912	-258.924	705.732	63.144	-77.963	702.444	60.359	-402.176	722.503	66.423	-152.740	721.916	72.467	-325.569	653.593	49.986	-124.628	672.363	47.240	-334.494	780.782	1288.655	-263.873	839.366	1220.211	-263.941	660.693	1351.220	-247.549	798.680	1296.066	-210.905	796.103	1295.402	-293.628	824.532	43.726	-104.613	822.067	48.332	-383.388	888.229	573.616	-88.914	908.581	605.450	-347.041	850.214	595.833	-110.510	861.059	621.462	-351.239	821.430	523.459	-114.681	843.326	549.451	-351.775	799.422	208.730	-103.663	686.353	175.567	-460.312	754.296	214.323	-117.162	692.084	184.634	-412.164
